<svg xmlns="http://www.w3.org/2000/svg" viewBox="0 0 100 100">
<rect width="100" height="100" fill="#0B0B0E"/>
<g transform="translate(9.70 30.53) scale(0.6618) translate(-2.93 58.54)"><path d="M46.34 0.29L28.13 0.29L20.41-10.84L46.34-10.84L46.34-47.46L35.30-47.46L28.37-37.40L19.38-43.60L29.64-58.30L57.42-58.30L57.42-10.84Q57.42-6.35 54.20-3.03Q50.98 0.29 46.34 0.29M11.91-20.90L26.56 0L13.18 0L2.93-14.70L11.91-20.90M117.77-11.08L117.77 0L109.81 0Q95.02 0 84.62-5.30Q74.22-10.60 68.75-20.90Q63.28-31.20 63.28-46.19L74.07-46.19Q74.07-11.08 109.81-11.08L117.77-11.08M100.29-47.46L63.28-47.46Q63.28-51.90 66.48-55.22Q69.68-58.54 74.32-58.54L111.33-58.54Q111.33-54.10 108.13-50.78Q104.93-47.46 100.29-47.46" fill="#39E7FF"/></g>
<g transform="translate(14.30 30.53) scale(0.6618) translate(-2.93 58.54)"><path d="M46.34 0.29L28.13 0.29L20.41-10.84L46.34-10.84L46.34-47.46L35.30-47.46L28.37-37.40L19.38-43.60L29.64-58.30L57.42-58.30L57.42-10.84Q57.42-6.35 54.20-3.03Q50.98 0.29 46.34 0.29M11.91-20.90L26.56 0L13.18 0L2.93-14.70L11.91-20.90M117.77-11.08L117.77 0L109.81 0Q95.02 0 84.62-5.30Q74.22-10.60 68.75-20.90Q63.28-31.20 63.28-46.19L74.07-46.19Q74.07-11.08 109.81-11.08L117.77-11.08M100.29-47.46L63.28-47.46Q63.28-51.90 66.48-55.22Q69.68-58.54 74.32-58.54L111.33-58.54Q111.33-54.10 108.13-50.78Q104.93-47.46 100.29-47.46" fill="#FF2E9A"/></g>
<g transform="translate(12.00 30.53) scale(0.6618) translate(-2.93 58.54)"><path d="M46.34 0.29L28.13 0.29L20.41-10.84L46.34-10.84L46.34-47.46L35.30-47.46L28.37-37.40L19.38-43.60L29.64-58.30L57.42-58.30L57.42-10.84Q57.42-6.35 54.20-3.03Q50.98 0.29 46.34 0.29M11.91-20.90L26.56 0L13.18 0L2.93-14.70L11.91-20.90M117.77-11.08L117.77 0L109.81 0Q95.02 0 84.62-5.30Q74.22-10.60 68.75-20.90Q63.28-31.20 63.28-46.19L74.07-46.19Q74.07-11.08 109.81-11.08L117.77-11.08M100.29-47.46L63.28-47.46Q63.28-51.90 66.48-55.22Q69.68-58.54 74.32-58.54L111.33-58.54Q111.33-54.10 108.13-50.78Q104.93-47.46 100.29-47.46" fill="#E7E2D4"/></g>
<path d="M6 14 L6 6 L14 6" stroke="#FF3B14" stroke-width="2.4" fill="none"/><path d="M94 14 L94 6 L86 6" stroke="#FF3B14" stroke-width="2.4" fill="none"/><path d="M6 86 L6 94 L14 94" stroke="#FF3B14" stroke-width="2.4" fill="none"/><path d="M94 86 L94 94 L86 94" stroke="#FF3B14" stroke-width="2.4" fill="none"/>
</svg>
